<?xml version="1.0" standalone="no"?><!DOCTYPE svg PUBLIC "-//W3C//DTD SVG 1.1//EN" "http://www.w3.org/Graphics/SVG/1.1/DTD/svg11.dtd"><svg t="1651419201871" class="icon" viewBox="0 0 1024 1024" version="1.1" xmlns="http://www.w3.org/2000/svg" p-id="1878" xmlns:xlink="http://www.w3.org/1999/xlink" width="200" height="200"><defs><style type="text/css">@font-face { font-family: feedback-iconfont; src: url("//at.alicdn.com/t/font_1031158_u69w8yhxdu.woff2?t=1630033759944") format("woff2"), url("//at.alicdn.com/t/font_1031158_u69w8yhxdu.woff?t=1630033759944") format("woff"), url("//at.alicdn.com/t/font_1031158_u69w8yhxdu.ttf?t=1630033759944") format("truetype"); }
</style></defs><path d="M665.213569 329.185661c44.057785 44.062065 88.667737 79.935795 126.724451 103.601926l71.589085-71.593365c-23.666132-38.069556-59.535581-82.670947-103.593365-126.728732-97.185661-97.168539-197.166399-154.743713-223.323703-128.594971-26.148743 26.153023 31.426431 126.146602 128.603532 223.315142z" fill="#BDBDD6" p-id="1879"></path><path d="M547.152574 116.408775s-16.038523 16.783307 270.056714 270.060995l-27.30444 27.304441c0-0.00428-242.752274-140.969502-242.752274-297.365436z" fill="#6E6E96" opacity=".2" p-id="1880"></path><path d="M551.745404 114.726592s151.507758 64.188336 273.489567 263.700374l20.841091-20.841091c-0.00428 0.00428-160.565008-229.671482-294.330658-242.859283z" fill="#FFFFFF" opacity=".33" p-id="1881"></path><path d="M654.679593 339.719636c43.069021 43.069021 89.023007 80.616372 129.391119 105.716426a14.908507 14.908507 0 0 0 18.405564-2.1145L874.069642 371.728197a14.878545 14.878545 0 0 0 2.110219-18.401284c-25.100054-40.389513-62.651685-86.339219-105.707865-129.395399-89.819155-89.814874-204.618513-168.368111-244.391654-128.59497-7.075441 7.075441-10.666667 16.813269-10.666666 28.905297-0.00428 45.590155 55.965757 132.186196 139.265917 215.477795z m-107.527019-223.310861c12.494382-12.494382 95.199572 21.564473 202.247191 128.59497 41.489567 41.498127 77.53451 85.560193 101.483146 124.070626a14.908507 14.908507 0 0 1 2.110219-18.405564L781.408325 422.257892a14.878545 14.878545 0 0 1 18.405565-2.1145c-38.501873-23.948636-82.559658-59.989299-124.057785-101.487426-85.697164-85.697164-130.542536-162.666667-130.542536-194.409845-0.008561-3.745318 0.70198-6.600321 1.939005-7.837346z" fill="#6E6E96" p-id="1882"></path><path d="M211.495003 740.100589C255.548507 784.162654 300.158459 820.036383 338.223735 843.702515l71.584804-71.593366c-23.666132-38.069556-59.539861-82.670947-103.597645-126.728732-97.18138-97.168539-197.162119-154.743713-223.319423-128.59497-26.153023 26.153023 31.422151 126.146602 128.603532 223.315142z" fill="#BDBDD6" p-id="1883"></path><path d="M93.429727 527.323703s-16.038523 16.779026 270.056715 270.060995l-27.304441 27.304441c0-0.00428-242.752274-140.969502-242.752274-297.365436z" fill="#6E6E96" opacity=".2" p-id="1884"></path><path d="M98.026838 525.64152s151.507758 64.188336 273.489566 263.700374l20.841092-20.841091c-0.00428 0.00428-160.565008-229.671482-294.330658-242.859283z" fill="#FFFFFF" opacity=".33" p-id="1885"></path><path d="M200.961027 750.634564c43.069021 43.069021 89.023007 80.616372 129.395399 105.716426a14.912788 14.912788 0 0 0 18.405564-2.1145L420.351075 782.643125a14.887105 14.887105 0 0 0 2.11022-18.401284c-25.104334-40.389513-62.651685-86.339219-105.712146-129.395399-89.823435-89.814874-204.618513-168.368111-244.387373-128.594971-7.075441 7.075441-10.666667 16.813269-10.666666 28.905297-0.00428 45.590155 55.965757 132.186196 139.265917 215.477796z m-107.5313-223.310861c12.494382-12.494382 95.203852 21.564473 202.247191 128.59497 41.493847 41.498127 77.53451 85.560193 101.483146 124.070626a14.904227 14.904227 0 0 1 2.1145-18.405564L327.69404 833.17282a14.869984 14.869984 0 0 1 18.401284-2.1145c-38.506153-23.948636-82.563938-59.989299-124.057785-101.487426-85.697164-85.697164-130.542536-162.666667-130.542536-194.409845-0.008561-3.745318 0.697699-6.600321 1.934724-7.837346z" fill="#6E6E96" p-id="1886"></path><path d="M770.87435 764.836811c103.499197 103.486356 209.973248 164.806849 237.825575 136.945961 27.856608-27.856608-33.451043-134.334938-136.950241-237.821295m-216.376672 216.368111c103.494917 103.507758 209.973248 164.811129 237.829856 136.954521 27.852327-27.856608-33.455324-134.334938-136.958802-237.825575" fill="#FFD500" opacity=".33" p-id="1887"></path><path d="M788.359636 747.351525c70.630284 70.626003 143.302301 112.47084 162.315677 93.466024 19.000535-19.004815-22.840021-91.681113-93.478866-162.307116M672.511589 864.672017c70.630284 70.638844 143.302301 112.483681 162.315677 93.478866 19.004815-19.009096-22.840021-91.685393-93.478866-162.315677" fill="#FF7B00" opacity=".24" p-id="1888"></path><path d="M722.925714 541.898341l221.012306 54.737293 54.056715 56.038523-109.170679 109.17068-133.230605-0.291065-0.886035 134.407705-102.018192 102.013911-64.021402-65.331193-46.745853-209.737828" fill="#C9D2E3" p-id="1889"></path><path d="M541.921969 722.906367l-258.743713 258.730872-55.101124-55.101123-1.493847-532.400214C68.077132 235.625468 2.771621 52.716961 32.032188 23.452113c28.520064-28.524345 223.910112 39.272338 374.514714 204.46014l505.558053-2.529695 63.666131 63.666131-252.845372 252.849652" fill="#C9D2E3" p-id="1890"></path><path d="M243.910198 468.216158l58.294275 58.294275s196.327448 161.082932 137.472445 219.937935l-192.616372 192.616373 39.345104 39.340823 226.037453-216.975922s94.168004-55.64473-149.812734-269.662922L238.692434 382.026752l5.217764 86.189406z" fill="#6E6E96" opacity=".2" p-id="1891"></path><path d="M686.106025 500.023542l238.219368-238.215088 34.328518 27.240235-240.881755 241.378277z" fill="#6E6E96" opacity=".15" p-id="1892"></path><path d="M278.097464 908.032103l24.107009-381.517389-58.294275-58.298556 1.288389 458.277154 10.743714 3.698234z" fill="#FFFFFF" opacity=".5" p-id="1893"></path><path d="M44.278309 35.402889s8.744783 87.537721 113.613697 192.406635l59.925094-111.28946L44.278309 35.402889z" fill="#FFFFFF" opacity=".33" p-id="1894"></path><path d="M939.82031 613.256287l-89.228464 86.108079h-164.794008v134.745853c-17.493847-102.857143-86.715891-261.799893-322.452648-417.964687a1221.889781 1221.889781 0 0 1-58.298555-41.087212c22.296415-8.894596 66.957731-21.76993 55.790262-86.835741l-43.150348-31.88015s-2.191546 51.218834-74.906367 53.500268C53.142943 148.579989 44.278309 35.402889 44.278309 35.402889-6.559572 251.06046 546.959957 738.602461 546.959957 738.602461l41.707865 194.041734 51.625469 52.674157 45.517389-37.692884s0.248261-0.915998 0.616372-2.598181l76.430176-57.326912v-132.691279h126.270733l87.387908-105.065811-36.695559-36.686998z" fill="#6E6E96" opacity=".2" p-id="1895"></path><path d="M943.93802 596.635634l-221.012306-54.737293s-84.507223-118.304976-210.426966-240.663456l411.826645-39.430712-17.121455-17.121455H451.34947C332.368197 140.216158 187.430797 45.87694 44.278309 35.402889c0 0 31.238095 26.311396 101.752809 82.991975-43.788122 17.626538-16.834671 69.585875-16.834671 69.585874l30.544677 38.078117L213.519615 172.284644c69.568753 55.255217 162.448368 128.179775 282.110219 220.537186 50.863563 39.259497 142.59176 135.310861 195.368646 181.012306 23.203852 20.087747 73.275548 79.631889 120.808989 125.513109h38.792938l89.228464-86.103799 29.418941 29.423221-25.309792-46.031033z" fill="#FFFFFF" opacity=".5" p-id="1896"></path><path d="M718.808004 558.518994l221.016587 54.737293a17.164259 17.164259 0 0 1-8.205458-4.725522l54.056715 56.038523a17.104334 17.104334 0 0 1 0.222579-23.987159l-109.17496 109.17496a17.087212 17.087212 0 0 1 12.147673-5.020866l-133.234885-0.282504a17.130016 17.130016 0 0 0-17.159979 17.014446l-0.886035 134.399144a17.121455 17.121455 0 0 1 5.016586-11.99358l-102.018191 102.009631a17.121455 17.121455 0 0 1 24.338148 0.11985L600.896822 920.663456a17.155698 17.155698 0 0 1 4.490101 8.265383l-46.750133-209.737828a17.108614 17.108614 0 0 0-20.430177-12.986624 17.108614 17.108614 0 0 0-12.982343 20.430177l46.745853 209.737828a17.100054 17.100054 0 0 0 4.485821 8.265382l64.021402 65.335474a17.125736 17.125736 0 0 0 24.338149 0.11557l102.018191-102.013912a17.112895 17.112895 0 0 0 5.016587-11.997859l0.886035-134.399144a17.138577 17.138577 0 0 1-17.159978 17.014446l133.230604 0.282504a17.121455 17.121455 0 0 0 12.143392-5.016587l109.17068-109.170679a17.121455 17.121455 0 0 0 0.222579-23.987159l-54.056715-56.042804a17.078652 17.078652 0 0 0-8.205457-4.725521l-221.016587-54.737293a17.130016 17.130016 0 0 0-20.742643 12.507223 17.087212 17.087212 0 0 0 12.485821 20.716961z" fill="#6E6E96" p-id="1897"></path><path d="M529.8171 710.801498l-258.743713 258.730872a17.125736 17.125736 0 0 1 24.214018 0l-55.101124-55.105404a17.130016 17.130016 0 0 1 5.012306 12.057785l-1.493846-532.400214a17.108614 17.108614 0 0 0-5.016587-12.053504C84.372477 227.706795 28.214104 57.284109 44.278309 35.402889c0 0-0.042804 0.064205-0.132691 0.154093a2.867844 2.867844 0 0 1-0.380952 0.325308c20.794007-13.29481 199.285179 38.125201 350.133761 203.565543a17.138577 17.138577 0 0 0 12.742643 5.590155l505.558053-2.529695a17.151418 17.151418 0 0 1-12.194757-5.012306l63.666132 63.666132a17.121455 17.121455 0 0 1 0-24.214018l-252.845372 252.845371a17.112895 17.112895 0 0 0 0 24.205458 17.104334 17.104334 0 0 0 24.205457 0l252.849652-252.841092a17.138577 17.138577 0 0 0 0-24.218298l-63.666131-63.661851a17.091493 17.091493 0 0 0-12.194757-5.016587l-505.558052 2.525415a17.142857 17.142857 0 0 1 12.742643 5.585875C287.039144 71.430712 125.164345 1.592295 57.376223 0.029963 40.186281-0.363831 27.93588 3.334403 19.923039 11.347245c-43.732477 43.745318 42.756554 243.090423 194.555377 394.897806a17.138577 17.138577 0 0 1-5.012306-12.057785l1.498128 532.404494a17.104334 17.104334 0 0 0 5.012306 12.053505l55.101123 55.105404a17.125736 17.125736 0 0 0 24.209738 0l258.743713-258.735153a17.121455 17.121455 0 0 0-24.214018-24.214018z" fill="#6E6E96" p-id="1898"></path><path d="M215.154714 277.787052c36.092028 36.096308 73.498127 41.827715 93.042268 22.287854C327.724002 280.543606 322.001156 243.124666 285.904848 207.041199c-36.096308-36.100589-96.218299-68.815409-115.745319-49.28839-19.544141 19.544141 8.903157 83.942215 44.995185 120.034243z" fill="#61BCDE" p-id="1899"></path><path d="M203.049845 289.896201c41.087212 41.087212 89.29695 50.242911 117.264847 22.287855 27.950776-27.955056 18.786517-76.169074-22.292134-117.256287-29.894061-29.88122-77.65008-60.139112-111.092563-60.139112-14.891386 0-23.918673 5.911182-28.875335 10.863563-5.187801 5.187801-11.372927 14.82718-11.372926 31.263778-0.008561 32.265383 24.226859 80.838951 56.368111 112.980203z m-20.781167-120.034243c0.175495-0.175495 1.481006-0.830391 4.657036-0.83039 19.925094 0 59.711075 22.94703 86.869984 50.114499 29.911182 29.911182 33.857678 57.266988 22.292135 68.82397-7.05404 7.05404-17.279829 6.668807-24.612092 5.085073-13.825575-2.966292-29.53023-12.695559-44.216158-27.377207-25.121455-25.117175-46.343499-65.76779-46.339219-88.766186 0-4.652755 0.997325-6.694489 1.348314-7.049759z" fill="#6E6E96" p-id="1900"></path><path d="M204.256907 236.836811s36.032103 44.725522 63.499198 22.369182c27.467095-22.364901-19.595506-61.859818-19.595506-61.859819s74.846442 35.218834 47.935795 90.628144c-26.910647 55.40931-91.839486-51.137507-91.839487-51.137507z" fill="#6E6E96" opacity=".25" p-id="1901"></path><path d="M257.390963 231.99858a29.089353 11.107544 36.653 1 0-46.674774-34.730781 29.089353 11.107544 36.653 1 0 46.674774 34.730781Z" fill="#FFFFFF" opacity=".45" p-id="1902"></path><path d="M709.386923 294.548957c-36.134831 0-65.438202 29.29909-65.438202 65.438202 0 36.134831 29.303371 65.438202 65.438202 65.438202 36.139112 0 65.438202-29.303371 65.438203-65.438202 0-36.139112-29.29481-65.438202-65.438203-65.438202zM742.140268 402.3542l-34.533976-21.136436-31.957196 22.172284 8.766185-37.115035-30.411985-27.321562h36.597111l17.014446-39.17389 18.046014 39.17389h36.605671l-30.416265 23.708935L742.140268 402.3542z" fill="#6E6E96" opacity=".59" p-id="1903"></path><path d="M357.729353 632.924559c-36.134831 0-65.433922 29.29909-65.433922 65.438202s29.29909 65.438202 65.433922 65.438202c36.139112 0 65.438202-29.29909 65.438202-65.438202s-29.29909-65.438202-65.438202-65.438202z m32.749063 107.800963l-34.533975-21.136437-31.957196 22.172285 8.766185-37.115035-30.411985-27.321562h36.59711l17.014447-39.17389 18.050294 39.17389h36.601391l-30.416265 23.708935 10.289994 39.691814z" fill="#6E6E96" opacity=".59" p-id="1904"></path><path d="M755.593451 778.713751a17.065811 17.065811 0 0 1-12.104869-5.016587l-75.372927-75.372926a17.121455 17.121455 0 1 1 24.209738-24.209738l75.372927 75.372926a17.121455 17.121455 0 0 1-12.104869 29.226325z" fill="#6E6E96" p-id="1905"></path></svg>