<?xml version="1.0" standalone="no"?><!DOCTYPE svg PUBLIC "-//W3C//DTD SVG 1.1//EN" "http://www.w3.org/Graphics/SVG/1.1/DTD/svg11.dtd"><svg t="1648303575555" class="icon" viewBox="0 0 1024 1024" version="1.1" xmlns="http://www.w3.org/2000/svg" p-id="17084" xmlns:xlink="http://www.w3.org/1999/xlink" width="200" height="200"><defs><style type="text/css"></style></defs><path d="M455.68 610.759111l-7.168-352.113778v-14.364444c2.389333-43.121778 23.950222-67.072 64.682667-71.850667 40.704 4.778667 62.293333 28.728889 64.682666 71.850667v14.364444l-7.196444 348.529778c-4.778667 33.564444-23.950222 52.707556-57.486222 57.486222-35.925333-2.389333-55.096889-20.366222-57.486223-53.902222z m53.930667 93.44c45.511111 2.389333 69.461333 26.339556 71.850666 71.850667-2.389333 43.121778-26.339556 65.877333-71.850666 68.266666-43.121778-2.389333-65.877333-25.144889-68.266667-68.266666 2.389333-45.511111 25.144889-69.461333 68.266667-71.850667z" fill="#000000" p-id="17085"></path></svg>