<?xml version="1.0" standalone="no"?><!DOCTYPE svg PUBLIC "-//W3C//DTD SVG 1.1//EN" "http://www.w3.org/Graphics/SVG/1.1/DTD/svg11.dtd"><svg t="1651162051145" class="icon" viewBox="0 0 1024 1024" version="1.1" xmlns="http://www.w3.org/2000/svg" p-id="5200" xmlns:xlink="http://www.w3.org/1999/xlink" width="200" height="200"><defs><style type="text/css">@font-face { font-family: feedback-iconfont; src: url("//at.alicdn.com/t/font_1031158_u69w8yhxdu.woff2?t=1630033759944") format("woff2"), url("//at.alicdn.com/t/font_1031158_u69w8yhxdu.woff?t=1630033759944") format("woff"), url("//at.alicdn.com/t/font_1031158_u69w8yhxdu.ttf?t=1630033759944") format("truetype"); }
</style></defs><path d="M734.2 500.3L528.1 758.7c-8.1 10.1-23.5 10.1-31.6 0L290.4 500.3c-10.5-13.2-1.1-32.8 15.8-32.8h121.4V182.4c0-13.5 11-24.5 24.5-24.5h123.8c13.5 0 24.5 11 24.5 24.5v285.1h118c16.9 0.1 26.3 19.6 15.8 32.8zM807 866H217c-13.8 0-25-11.2-25-25s11.2-25 25-25h590c13.8 0 25 11.2 25 25s-11.2 25-25 25z" fill="#666666" p-id="5201"></path></svg>