<?xml version="1.0" standalone="no"?><!DOCTYPE svg PUBLIC "-//W3C//DTD SVG 1.1//EN" "http://www.w3.org/Graphics/SVG/1.1/DTD/svg11.dtd"><svg t="1651419481372" class="icon" viewBox="0 0 1024 1024" version="1.1" xmlns="http://www.w3.org/2000/svg" p-id="48700" xmlns:xlink="http://www.w3.org/1999/xlink" width="200" height="200"><defs><style type="text/css">@font-face { font-family: feedback-iconfont; src: url("//at.alicdn.com/t/font_1031158_u69w8yhxdu.woff2?t=1630033759944") format("woff2"), url("//at.alicdn.com/t/font_1031158_u69w8yhxdu.woff?t=1630033759944") format("woff"), url("//at.alicdn.com/t/font_1031158_u69w8yhxdu.ttf?t=1630033759944") format("truetype"); }
</style></defs><path d="M470 508h108v104h-108z" fill="#DADAF2" p-id="48701"></path><path d="M596 630h-144v-140h144v140z m-108-36h72v-68h-72v68z" fill="#6E6E96" p-id="48702"></path><path d="M988 779a18.008 18.008 0 0 1-18-18c0-249.236-202.764-452-452-452s-452 202.764-452 452a18.004 18.004 0 0 1-36 0c0-269.084 218.916-488 488-488s488 218.916 488 488c0 9.936-8.064 18-18 18zM876 240a18.004 18.004 0 0 1-18-18v-132a18.004 18.004 0 0 1 36 0v132c0 9.94-8.064 18-18 18z" fill="#6E6E96" p-id="48703"></path><path d="M996 108h-236a18.004 18.004 0 0 1 0-36h236a18.004 18.004 0 0 1 0 36zM160 220a18 18 0 0 1-18-18v-132a18 18 0 0 1 36 0v132A18 18 0 0 1 160 220z" fill="#6E6E96" p-id="48704"></path><path d="M280 88H44a18 18 0 0 1 0-36h236a18 18 0 0 1 0 36z" fill="#6E6E96" p-id="48705"></path><path d="M324 452c0 30.928 25.072 56 56 56h276c30.928 0 56-25.072 56-56V344c0-30.928-25.072-56-56-56H380c-30.928 0-56 25.072-56 56v108z" fill="#DADAF2" p-id="48706"></path><path d="M656 526H380c-40.804 0-74-33.196-74-74V344c0-40.804 33.196-74 74-74h276c40.804 0 74 33.196 74 74v108c0 40.804-33.196 74-74 74z m-276-220c-20.952 0-38 17.048-38 38v108c0 20.952 17.048 38 38 38h276c20.952 0 38-17.048 38-38V344c0-20.952-17.048-38-38-38H380z" fill="#6E6E96" p-id="48707"></path><path d="M94 260c0 30.928 25.072 56 56 56h24c30.928 0 56-25.072 56-56v-12c0-30.928-25.072-56-56-56h-24c-30.928 0-56 25.072-56 56v12z" fill="#DADAF2" p-id="48708"></path><path d="M131.476 210H178v44H131.476z" fill="#FFFFFF" p-id="48709"></path><path d="M174 334h-24C109.196 334 76 300.804 76 260v-12c0-40.804 33.196-74 74-74h24C214.804 174 248 207.196 248 248v12c0 40.804-33.196 74-74 74z m-24-124c-20.952 0-38 17.048-38 38v12c0 20.952 17.048 38 38 38h24c20.952 0 38-17.048 38-38v-12c0-20.952-17.048-38-38-38h-24z" fill="#6E6E96" p-id="48710"></path><path d="M808 260c0 30.928 25.072 56 56 56h24c30.928 0 56-25.072 56-56v-12c0-30.928-25.072-56-56-56h-24c-30.928 0-56 25.072-56 56v12z" fill="#DADAF2" p-id="48711"></path><path d="M844 210h41.644v44H844z" fill="#FFFFFF" p-id="48712"></path><path d="M888 334h-24c-40.804 0-74-33.196-74-74v-12c0-40.804 33.196-74 74-74h24c40.804 0 74 33.196 74 74v12c0 40.804-33.196 74-74 74z m-24-124c-20.952 0-38 17.048-38 38v12c0 20.952 17.048 38 38 38h24c20.952 0 38-17.048 38-38v-12c0-20.952-17.048-38-38-38h-24z" fill="#6E6E96" p-id="48713"></path><path d="M44 316c0 26.508 21.492 48 48 48h856c26.508 0 48-21.492 48-48s-21.492-48-48-48H92c-26.508 0-48 21.492-48 48 0 0 0-26.508 0 0z" fill="#DADAF2" p-id="48714"></path><path d="M160 316c0 26.508 21.492 48 48 48h490c26.508 0 48-21.492 48-48s-21.492-48-48-48H208c-26.508 0-48 21.492-48 48 0 0 0-26.508 0 0z" fill="#FFFFFF" opacity=".5" p-id="48715"></path><path d="M291.5 316c0 26.508 21.492 48 48 48h117c26.508 0 48-21.492 48-48s-21.492-48-48-48h-117c-26.508 0-48 21.492-48 48 0 0 0-26.508 0 0z" fill="#FFFFFF" p-id="48716"></path><path d="M948 382H92c-36.392 0-66-29.608-66-66v-11.78a17.92 17.92 0 0 1 4.312-11.688C39.796 267.688 63.872 250 92 250h856c36.392 0 66 29.608 66 66s-29.608 66-66 66zM62 316c0 16.544 13.456 30 30 30h856c16.548 0 30-13.456 30-30s-13.452-30-30-30H92c-16.544 0-30 13.456-30 30z" fill="#6E6E96" p-id="48717"></path><path d="M520 790m-200.516 0a200.516 200.516 0 1 0 401.032 0 200.516 200.516 0 1 0-401.032 0Z" fill="#F0F0FF" p-id="48718"></path><path d="M520 1008.516c-120.492 0-218.516-98.028-218.516-218.516S399.508 571.484 520 571.484c120.488 0 218.516 98.028 218.516 218.516S640.488 1008.516 520 1008.516z m0-401.032c-100.64 0-182.516 81.876-182.516 182.516S419.36 972.516 520 972.516s182.516-81.876 182.516-182.516S620.64 607.484 520 607.484z" fill="#6E6E96" p-id="48719"></path><path d="M520 790m-124.128 0a124.128 124.128 0 1 0 248.256 0 124.128 124.128 0 1 0-248.256 0Z" fill="#6AB6FF" p-id="48720"></path><path d="M520 932.128c-78.372 0-142.128-63.756-142.128-142.128s63.756-142.128 142.128-142.128 142.128 63.756 142.128 142.128-63.756 142.128-142.128 142.128z m0-248.256c-58.52 0-106.128 47.608-106.128 106.128S461.48 896.128 520 896.128s106.128-47.608 106.128-106.128S578.52 683.872 520 683.872z" fill="#6E6E96" p-id="48721"></path><path d="M521.36 795.8m-61.04 0a61.04 61.04 0 1 0 122.08 0 61.04 61.04 0 1 0-122.08 0Z" fill="#5089BF" opacity=".4" p-id="48722"></path><path d="M342 382h352v34h-352z" fill="#6E6E96" opacity=".2" p-id="48723"></path><path d="M386 416h192v74h-192z" fill="#FFFFFF" opacity=".5" p-id="48724"></path><path d="M434 416h48v74h-48z" fill="#FFFFFF" p-id="48725"></path><path d="M481.996 765.984m-31.224 0a31.224 31.224 0 1 0 62.448 0 31.224 31.224 0 1 0-62.448 0Z" fill="#FFFFFF" opacity=".7" p-id="48726"></path><path d="M560.048 820.544m-18.564 0a18.564 18.564 0 1 0 37.128 0 18.564 18.564 0 1 0-37.128 0Z" fill="#FFFFFF" opacity=".5" p-id="48727"></path><path d="M656 416h38v82H656z" fill="#6E6E96" opacity=".2" p-id="48728"></path><path d="M836.364 286s27.636 30 4 60h145.088l1.524-58s-109.616-23.74-150.612-2z" fill="#6E6E96" opacity=".2" p-id="48729"></path></svg>