<?xml version="1.0" standalone="no"?><!DOCTYPE svg PUBLIC "-//W3C//DTD SVG 1.1//EN" "http://www.w3.org/Graphics/SVG/1.1/DTD/svg11.dtd"><svg t="1651161093781" class="icon" viewBox="0 0 1282 1024" version="1.1" xmlns="http://www.w3.org/2000/svg" p-id="1878" xmlns:xlink="http://www.w3.org/1999/xlink" width="250.390625" height="200"><defs><style type="text/css">@font-face { font-family: feedback-iconfont; src: url("//at.alicdn.com/t/font_1031158_u69w8yhxdu.woff2?t=1630033759944") format("woff2"), url("//at.alicdn.com/t/font_1031158_u69w8yhxdu.woff?t=1630033759944") format("woff"), url("//at.alicdn.com/t/font_1031158_u69w8yhxdu.ttf?t=1630033759944") format("truetype"); }
</style></defs><path d="M318.974572 591.090507H211.248593l25.308962-74.323443h82.417017z" fill="#C9D2E3" p-id="1879"></path><path d="M318.974572 570.729314H211.248593a20.356102 20.356102 0 0 1 19.271869 26.922587l25.308962-74.328533a20.361192 20.361192 0 0 1-19.276959 13.799798h82.417017a20.361192 20.361192 0 0 1-20.361193-20.361192v74.328533a20.371373 20.371373 0 0 1 20.366283-20.361193z m0-74.323442H236.557555a20.366283 20.366283 0 0 0-19.276958 13.799798l-25.308963 74.333623a20.361192 20.361192 0 0 0 19.271869 26.922587h107.725979a20.361192 20.361192 0 0 0 20.361192-20.361193V516.767064c0.00509-11.244469-9.111634-20.361192-20.356102-20.361192z" fill="#6E6E96" p-id="1880"></path><path d="M20.362414 580.293985l145.073496 145.073496H1262.395153V636.287264z" fill="#C9D2E3" p-id="1881"></path><path d="M5.961961 594.689348l145.073496 145.073496A20.371373 20.371373 0 0 0 165.43591 745.728673H1262.395153a20.361192 20.361192 0 0 0 20.361193-20.361192V636.287264a20.371373 20.371373 0 0 0-19.444939-20.340831l-1242.032739-55.99328c-8.393902-0.371592-16.156606 4.44383-19.546745 12.130181s-1.71034 16.670726 4.230038 22.606014zM1242.033961 636.287264v89.080217a20.361192 20.361192 0 0 1 20.361192-20.361193H165.43591c5.400806 0 10.577639 2.148106 14.400454 5.96583l-145.073497-145.073496a20.361192 20.361192 0 0 1-15.311616 34.736194l1242.032739 55.993279A20.366283 20.366283 0 0 1 1242.033961 636.287264z" fill="#6E6E96" p-id="1882"></path><path d="M361.407297 595.671775L432.676561 453.036532h264.695502v55.993279h335.959675v111.986558z" fill="#C9D2E3" p-id="1883"></path><path d="M419.044743 558.380251L456.432982 488.668619H656.649678v22.056261s0 40.722385 40.722385 40.722385h283.361625V529.391003H702.462361l-25.451491-55.993279H445.264868l-42.198571 84.453136 15.978446 0.529391z" fill="#E8F0FF" opacity=".6" p-id="1884"></path><path d="M379.620384 604.773228l71.269264-142.635243A20.351012 20.351012 0 0 1 432.676561 473.397724h264.695502a20.361192 20.361192 0 0 1-20.361193-20.361192v55.993279a20.361192 20.361192 0 0 0 20.361193 20.361192h335.959675a20.361192 20.361192 0 0 1-20.361192-20.361192v111.986558a20.310289 20.310289 0 0 1 6.245795-14.665148 20.340831 20.340831 0 0 1 14.884032-5.675683l-671.91935-25.344594a20.381554 20.381554 0 0 1 16.752171 9.966804 20.371373 20.371373 0 0 1 0.68719 19.47548zM1053.692931 621.016369v-111.986558a20.361192 20.361192 0 0 0-20.361193-20.361192h-335.959675a20.361192 20.361192 0 0 1 20.361192 20.361192V453.036532a20.361192 20.361192 0 0 0-20.361192-20.361193H432.676561a20.351012 20.351012 0 0 0-18.213087 11.25974l-71.269263 142.635243a20.371373 20.371373 0 0 0 17.449542 29.447375l671.91935 25.344594a20.335741 20.335741 0 0 0 14.894212-5.685863A20.32556 20.32556 0 0 0 1053.692931 621.016369z" fill="#6E6E96" p-id="1885"></path><path d="M524.301927 361.411166h117.076857v91.625366h-117.076857z" fill="#C9D2E3" p-id="1886"></path><path d="M641.378784 432.675339h-117.076857a20.361192 20.361192 0 0 1 20.361192 20.361193V361.411166a20.361192 20.361192 0 0 1-20.361192 20.361192h117.076857a20.361192 20.361192 0 0 1-20.361193-20.361192v91.625366a20.361192 20.361192 0 0 1 20.361193-20.361193z m0-91.625366h-117.076857a20.361192 20.361192 0 0 0-20.361192 20.361193v91.625366a20.361192 20.361192 0 0 0 20.361192 20.361192h117.076857a20.361192 20.361192 0 0 0 20.361192-20.361192V361.411166a20.361192 20.361192 0 0 0-20.361192-20.361193z" fill="#6E6E96" p-id="1887"></path><path d="M580.295206 285.056694m-55.993279 0a55.993279 55.993279 0 1 0 111.986558 0 55.993279 55.993279 0 1 0-111.986558 0Z" fill="#C9D2E3" p-id="1888"></path><path d="M615.927293 285.056694c0 19.64346-15.983536 35.632087-35.632087 35.632087s-35.632087-15.988626-35.632087-35.632087c0-19.648551 15.983536-35.632087 35.632087-35.632087s35.632087 15.983536 35.632087 35.632087z m-35.632087-76.354471c-42.101856 0-76.354472 34.252616-76.354471 76.354471s34.252616 76.354472 76.354471 76.354472 76.354472-34.252616 76.354472-76.354472-34.252616-76.354472-76.354472-76.354471z" fill="#6E6E96" p-id="1889"></path><path d="M783.907131 509.029811h-81.44477l20.361192-330.869377h40.722385z" fill="#C9D2E3" p-id="1890"></path><path d="M783.907131 488.668619h-81.44477a20.361192 20.361192 0 0 1 20.32047 21.613405l20.361192-330.869377A20.366283 20.366283 0 0 1 722.823553 198.521626h40.722385a20.366283 20.366283 0 0 1-20.32047-19.108979l20.361193 330.869377A20.345922 20.345922 0 0 1 783.907131 488.668619z m-20.361193-330.869378h-40.722385a20.366283 20.366283 0 0 0-20.32047 19.10898l-20.361192 330.869377A20.345922 20.345922 0 0 0 702.462361 529.391003h81.44477a20.361192 20.361192 0 0 0 20.32047-21.613405l-20.361193-330.869377A20.366283 20.366283 0 0 0 763.545938 157.799241z" fill="#6E6E96" p-id="1891"></path><path d="M689.736616 142.528347h106.89626v55.993279h-106.89626z" fill="#C9D2E3" p-id="1892"></path><path d="M796.632876 178.160434h-106.89626a20.361192 20.361192 0 0 1 20.361192 20.361192V142.528347a20.361192 20.361192 0 0 1-20.361192 20.361193h106.89626a20.361192 20.361192 0 0 1-20.361192-20.361193v55.993279a20.361192 20.361192 0 0 1 20.361192-20.361192z m0-55.993279h-106.89626a20.361192 20.361192 0 0 0-20.361193 20.361192v55.993279a20.361192 20.361192 0 0 0 20.361193 20.361193h106.89626a20.361192 20.361192 0 0 0 20.361192-20.361193V142.528347a20.361192 20.361192 0 0 0-20.361192-20.361192z" fill="#6E6E96" p-id="1893"></path><path d="M761.000789 142.528347V20.361192a20.361192 20.361192 0 0 0-40.722385 0v122.167155a20.361192 20.361192 0 0 0 40.722385 0zM230.520462 527.202175l-93.875278-20.259386a20.361192 20.361192 0 0 0-8.592423 39.806131l93.875278 20.259387a20.361192 20.361192 0 0 0 8.592423-39.806132zM605.049326 498.849215h38.029617v40.722385h-38.029617zM532.609294 498.849215h38.034707v40.722385h-38.034707zM454.737913 498.849215h38.029617v40.722385h-38.029617z" fill="#6E6E96" p-id="1894"></path><path d="M71.86096 602.996714L188.342252 656.648456h1053.691709zM544.663119 381.772358h17.632793v50.902981H544.663119z" fill="#E8F0FF" p-id="1895"></path><path d="M594.466596 381.772358H621.017591v50.902981h-26.550995zM980.733688 529.391003h38.482653v76.960218h-38.482653zM403.066297 557.85086l577.667391 19.047896v21.755934l-587.104804-21.913733z" fill="#6E6E96" opacity=".2" p-id="1896"></path><path d="M571.387185 276.148672m-13.99832 0a13.99832 13.99832 0 1 0 27.996639 0 13.99832 13.99832 0 1 0-27.996639 0Z" fill="#E8F0FF" p-id="1897"></path><path d="M741.489677 190.036099V488.668619h27.584325z" fill="#6E6E96" opacity=".2" p-id="1898"></path><path d="M720.278404 162.88954h30.541789v15.270894h-30.541789z" fill="#E8F0FF" p-id="1899"></path><path d="M278.695043 537.128257h19.088618v34.252616h-19.088618z" fill="#6E6E96" opacity=".2" p-id="1900"></path><path d="M982.428757 854.320003h237.548942v40.722385H982.428757zM656.649678 983.277615h305.417887v40.722385h-305.417887zM106.897482 878.076424h132.347751v40.722385H106.897482zM446.252386 813.597618h71.264174v40.722385h-71.264174z" fill="#6E6E96" opacity=".4" p-id="1901"></path></svg>