<?xml version="1.0" standalone="no"?><!DOCTYPE svg PUBLIC "-//W3C//DTD SVG 1.1//EN" "http://www.w3.org/Graphics/SVG/1.1/DTD/svg11.dtd"><svg t="1651161096942" class="icon" viewBox="0 0 1048 1024" version="1.1" xmlns="http://www.w3.org/2000/svg" p-id="2053" xmlns:xlink="http://www.w3.org/1999/xlink" width="204.6875" height="200"><defs><style type="text/css">@font-face { font-family: feedback-iconfont; src: url("//at.alicdn.com/t/font_1031158_u69w8yhxdu.woff2?t=1630033759944") format("woff2"), url("//at.alicdn.com/t/font_1031158_u69w8yhxdu.woff?t=1630033759944") format("woff"), url("//at.alicdn.com/t/font_1031158_u69w8yhxdu.ttf?t=1630033759944") format("truetype"); }
</style></defs><path d="M987.419878 817.998541l-266.156905-112.079745 105.247275 272.989375" fill="#00A0C6" opacity=".19" p-id="2054"></path><path d="M747.449984 613.907369l-118.210815 118.206689 50.802058 50.793807 0.053636-0.066015c0.222798 0.259931 0.429092 0.548743 0.668394 0.775667 10.743812 10.743812 45.925259-6.997506 78.569284-39.641531 32.639899-32.639899 50.393595-67.821346 39.629154-78.569284-0.251679-0.239302-0.51161-0.44147-0.775667-0.668394l0.066014-0.04951-50.802058-50.781429z" fill="#C9D2E3" p-id="2055"></path><path d="M729.560134 667.944123l52.959897 52.964024 19.387547-49.151703-44.481197-44.48945z" fill="#FCFCFC" p-id="2056"></path><path d="M735.781973 602.239358l-118.210816 118.206689a16.511804 16.511804 0 0 0 0 23.340148l50.802059 50.793807a16.412782 16.412782 0 0 0 12.505566 4.810785 16.462293 16.462293 0 0 0 11.956823-6.077433 16.433412 16.433412 0 0 1-12.678853 6.065055 16.466419 16.466419 0 0 1-12.757246-5.97016c0.338323 0.429092 0.932451 1.151123 1.782384 1.984552 22.894552 22.873923 69.174637-7.100653 101.818662-39.748804 32.652277-32.648151 62.622727-78.928236 39.629154-101.905306-0.127903-0.127903-0.255805-0.259931-0.396086-0.383707-0.519862-0.486855-0.961332-0.858185-1.25427-1.11399a16.202362 16.202362 0 0 1 5.792747 13.004799c-0.119651 5.037709-2.665324 9.654578-6.700442 12.678853a16.590195 16.590195 0 0 0 6.605547-12.064096 16.511804 16.511804 0 0 0-4.761275-12.860393l-50.797932-50.797932a16.532433 16.532433 0 0 0-23.336022 0.037133z m52.572064 49.250724l-0.078392 0.049511a16.499426 16.499426 0 0 0-0.775667 25.786799l0.429092 0.358953a9.646326 9.646326 0 0 1-0.639512-0.60238c-1.246018-1.250144-1.646229-2.566302-1.708118-2.933506 0.779793 6.052678-9.844369 30.069471-37.921036 58.166768-28.105549 28.105549-52.11409 38.717332-58.183272 37.937539 0.379582 0.045385 1.691614 0.445596 2.95001 1.703992 0.3507 0.346575 0.635387 0.701401 0.730282 0.788045-0.037133-0.045385-0.3507-0.429092-0.387833-0.4621a16.503552 16.503552 0 0 0-25.502113 0.165036 16.416908 16.416908 0 0 1 24.425256-1.200634l-50.797932-50.797932a16.515929 16.515929 0 0 1 0 23.340148l118.198437-118.206689a16.482922 16.482922 0 0 1-23.323644 0.004126l50.797932 50.797932a16.548936 16.548936 0 0 1-4.794282-12.839763 16.594321 16.594321 0 0 1 6.580792-12.055845z" fill="#6E6E96" p-id="2057"></path><path d="M428.052621 747.173549c16.05383 16.05383 16.05383 42.306855 0 58.356559L246.356768 987.213583c-16.057956 16.057956-42.302729 16.057956-58.36481 0L36.790543 836.016294c-16.057956-16.057956-16.057956-42.302729 0-58.360685l181.699978-181.699978c16.05383-16.05383 42.302729-16.05383 58.356559 0l151.205541 151.217918z" fill="#A3D9FF" p-id="2058"></path><path d="M659.00745 488.769188l-156.218495 156.218495 97.280186 97.271934 0.082518-0.078392c0.268183 0.354826 0.565247 0.701401 0.88294 1.031472 14.188929 14.188929 60.687686-9.254367 103.832095-52.390525 43.132032-43.14441 66.604209-89.647293 52.386399-103.832096-0.317693-0.321819-0.67252-0.60238-1.027346-0.891192l0.086644-0.074266-97.304941-97.25543z" fill="#C9D2E3" p-id="2059"></path><path d="M620.888371 557.131025l107.50001 107.487633s39.798315-63.534548 28.864712-77.616204c-10.941855-14.07753-90.711772-91.499817-90.711772-91.499817l-45.65295 61.628388z" fill="#FCFCFC" opacity=".58" p-id="2060"></path><path d="M647.339439 477.097051l-156.210243 156.214369a16.536559 16.536559 0 0 0-4.843793 11.668011c0 4.381693 1.749376 8.573595 4.847919 11.668011l97.267808 97.271934a16.548936 16.548936 0 0 0 11.91969 4.835541 16.561314 16.561314 0 0 0 11.762907-5.173864 16.375649 16.375649 0 0 1-12.658225 5.120227 16.474671 16.474671 0 0 1-12.175495-6.263098c0.503358 0.627135 1.118116 1.386298 1.914412 2.20735 26.042605 26.042605 82.695172-7.484361 127.38679-52.175979 29.665134-29.681638 61.384961-72.475347 61.372583-103.57629-0.004126-12.101229-4.901555-19.511324-8.998562-23.616583a24.012668 24.012668 0 0 0-2.244483-1.980426 16.383901 16.383901 0 0 1 6.102189 13.03368 16.474671 16.474671 0 0 1-6.556036 12.864519 16.606699 16.606699 0 0 0 6.506525-12.051719 16.561314 16.561314 0 0 0-4.753023-12.810882l-97.288437-97.271934a16.553062 16.553062 0 0 0-23.352526 0.037133z m98.959422 95.819621l-0.086644 0.066015a16.449915 16.449915 0 0 0-6.490021 12.897525 16.462293 16.462293 0 0 0 6.126943 13.074939c0.243427 0.185665-0.016504-0.024755-0.3507-0.363078a3.313088 3.313088 0 0 1-0.746786-1.118116c2.091825 6.770582-9.78248 39.89321-51.573599 81.696707-41.799371 41.791119-74.926125 53.661298-81.700833 51.573599a3.383228 3.383228 0 0 1 1.208885 0.816926c0.387833 0.400211 0.482729 0.515736 0.486855 0.523988-0.004126-0.008252-0.049511-0.057762-0.119651-0.156784a16.544811 16.544811 0 0 0-12.216754-6.213587 16.392153 16.392153 0 0 0-12.699483 5.15736 16.396279 16.396279 0 0 1 23.600079-0.264057l-97.280186-97.271934a16.491174 16.491174 0 0 1 0.004126 23.336022l156.218495-156.218494a16.491174 16.491174 0 0 1-23.336022 0l97.288437 97.276059a16.528307 16.528307 0 0 1 1.666859-24.81309z" fill="#6E6E96" p-id="2061"></path><path d="M409.333468 200.20046L214.228479 395.305449l251.988606 251.980353 0.086643-0.090769c0.3507 0.437344 0.705527 0.891192 1.118116 1.287277 17.733066 17.757822 75.792561-11.556612 129.676658-65.420079 53.875845-53.892348 83.161397-111.93534 65.42833-129.672532a13.120324 13.120324 0 0 0-1.291403-1.118116l0.09077-0.086643-251.992731-251.98448z" fill="#C9D2E3" p-id="2062"></path><path d="M369.465013 305.70354l251.423358 251.423359s65.370568-77.537812 44.604975-99.545298-242.92403-244.165922-242.92403-244.165922-19.441184 76.217528-53.104303 92.287861z" fill="#FCFCFC" opacity=".58" p-id="2063"></path><path d="M397.661331 188.528323L202.556342 383.633312a16.503552 16.503552 0 0 0 0 23.344274l251.988606 251.972102a16.56544 16.56544 0 0 0 12.031089 4.839666 16.388027 16.388027 0 0 0 11.795913-5.355402 16.416908 16.416908 0 0 1-25.011132-1.002591c0.507484 0.631261 1.270773 1.613222 2.318749 2.665323 4.620994 4.620994 12.955288 10.067167 26.644984 10.071293 30.973041 0.004126 80.586843-29.623875 126.441962-75.450113 52.600945-52.600945 95.497802-122.922579 65.420079-153.008554a27.981772 27.981772 0 0 0-2.780849-2.434274 16.499426 16.499426 0 0 1 0.944829 25.176169 16.627328 16.627328 0 0 0 5.413165-11.857802 16.606699 16.606699 0 0 0-4.769527-12.088852L421.005605 188.524197a16.520055 16.520055 0 0 0-23.344274 0.004126z m252.529096 251.47287l-0.090769 0.086643a16.569566 16.569566 0 0 0-5.363654 12.806756 16.536559 16.536559 0 0 0 6.308482 12.369412c0.136154 0.09077 0.181539 0.136154 0.193917 0.148532a3.837076 3.837076 0 0 1-0.540491-0.548743c4.150643 7.2038-9.6422 50.868072-65.279799 106.509797-55.645851 55.633473-99.305997 69.438694-106.497419 65.292177a1.85665 1.85665 0 0 1 0.177413 0.14028c0.259931 0.264057 0.400211 0.429092 0.408463 0.429092l-0.243428-0.301189a16.507678 16.507678 0 0 0-25.122531-0.915948 16.371523 16.371523 0 0 1 11.775284-5.29764 16.454041 16.454041 0 0 1 11.985704 4.893303L225.89649 383.633312a16.503552 16.503552 0 0 1 0 23.344274l195.104989-195.104989a16.528307 16.528307 0 0 1-23.344274 0l251.988605 251.98448a16.4953 16.4953 0 0 1 0.544617-23.855884z" fill="#6E6E96" p-id="2064"></path><path d="M1011.576951 188.004335c16.049704 16.05383 16.049704 42.302729 0 58.356559L829.881099 428.060873c-16.057956 16.057956-42.302729 16.057956-58.360685 0L620.310747 276.84708c-16.057956-16.057956-16.057956-42.302729 0-58.360685l181.687601-181.699978c16.057956-16.05383 42.310981-16.05383 58.360685 0l151.217918 151.217918z" fill="#A3D9FF" p-id="2065"></path><path d="M347.450435 333.455837a45.4219 137.957315 45.001 1 0-64.235146-64.237389 45.4219 137.957315 45.001 1 0 64.235146 64.237389Z" fill="#C9D2E3" p-id="2066"></path><path d="M229.461257 387.210457c0.082518 0.082518 0.119651 0.152658 0.132029 0.177413-4.150643-7.2038 9.638074-50.859821 65.292176-106.509797 55.645851-55.654102 99.305997-69.438694 106.505671-65.288051a1.340914 1.340914 0 0 1-0.177413-0.136154 0.668394 0.668394 0 0 1-0.144406-0.185665c4.146517 7.2038-9.6422 50.863946-65.288051 106.509797C280.147791 377.427976 236.487644 391.216694 229.283844 387.06605a1.035598 1.035598 0 0 1 0.177413 0.144407z m129.676658-42.092309C404.955901 299.283659 434.583902 249.657479 434.579776 218.688564c0-13.693822-5.446172-22.02399-10.025908-26.57897-4.55498-4.567358-12.8934-10.017656-26.587222-10.017656-30.964789 0-80.582717 29.615624-126.425458 75.437735-27.25149 27.263867-49.510655 56.61956-62.63923 82.620906-20.286991 40.202652-12.720112 60.469014-2.797352 70.391774 30.11073 30.094227 100.428238-12.819134 153.033309-65.424205zM621.358723 412.172079l67.165329-67.169456 23.331896 23.336022-67.165329 67.169456zM349.367812 684.249632l76.906551-76.906551 23.340149 23.331897L372.703835 707.58978z" fill="#6E6E96" p-id="2067"></path><path d="M819.162042 21.083287v399.947073L920.015246 320.168904V91.223382zM244.813686 587.266511v399.947072l100.857331-100.861456v-228.945522z" fill="#FCFCFC" opacity=".33" p-id="2068"></path><path d="M1023.253214 176.336324L872.035296 25.126658A57.349842 57.349842 0 0 0 831.205509 8.251776c-15.463828 0-29.991079 5.990789-40.858668 16.870756l-181.687601 181.704104c-10.884092 10.884092-16.879008 25.378337-16.879008 40.842165s5.994915 29.97045 16.883133 40.842164l151.205541 151.205541c22.523222 22.510845 59.173485 22.510845 81.692581 0.004126l181.699979-181.704104c22.506719-22.51497 22.506719-59.156981-0.008252-81.680204z m-255.86694 62.032725l58.150265-58.146138 46.799947 46.799947-58.146139 58.146138-46.804073-46.799947z m23.459799 70.140095l-57.766557 57.766557c-15.014106-15.022358-31.52591-31.542413-46.799947-46.804073l57.766557-57.762431 46.799947 46.799947z m-46.795821-93.480243l-48.470931-48.470931 58.146138-58.150265 48.470932 48.475058-58.146139 58.146138z m104.822309-58.142012l54.11102-54.123398c15.274037 15.274037 31.785841 31.785841 46.81645 46.799947l-54.123397 54.123397-46.804073-46.799946z m-35.202076-108.428335a24.60267 24.60267 0 0 1 17.51852-7.203801c6.626176 0 12.856267 2.558051 17.497891 7.203801 0 0 12.815008 12.827386 30.968915 30.964789l-54.119272 54.119272-48.475058-48.475058 36.609004-36.609003z m-188.899653 199.206121c0-6.64268 2.558051-12.856267 7.2038-17.497891l40.264541-40.26454 48.466805 48.470931-57.762431 57.762431-30.964789-30.964789a24.590292 24.590292 0 0 1-7.207926-17.506142z m193.442256 168.724061a24.796586 24.796586 0 0 1-35.012285-0.004126s-10.904722-10.892344-26.764635-26.756383l57.766557-57.766557 44.266651 44.270777-40.256288 40.256289z m63.59231-63.596437l-44.266651-44.270777 58.150264-58.146139 44.266652 44.266652c-18.649013 18.653139-39.26195 39.253698-58.150265 58.150264z m118.099416-118.103542l-36.613129 36.617256-44.266652-44.266652 54.111021-54.123398c15.89292 15.880543 26.768761 26.768761 26.76876 26.768761a24.771831 24.771831 0 0 1 0 35.004033zM439.720632 735.497286l-151.205541-151.213792c-22.523222-22.51497-59.169359-22.51497-81.692581 0l-181.704104 181.704104c-22.510845 22.523222-22.510845 59.173485-0.004126 81.692581l151.209667 151.201415a57.36222 57.36222 0 0 0 40.850416 16.879008c15.463828 0 29.966324-5.994915 40.842165-16.883134l181.691727-181.687601c10.879966-10.879966 16.870756-25.382463 16.870755-40.842164s-5.978412-29.97045-16.858378-40.850417z m-337.15931 142.941388l62.833148-62.833148 46.804072 46.808199-62.829021 62.829021-46.808199-46.804072z m86.165044-86.16917l56.083194-56.08732 46.804073 46.808198-56.083195 56.083195-46.804072-46.804073z m79.423342-79.423342l51.119752-51.136255c15.265785 15.261659 31.773463 31.773463 46.804073 46.820576l-51.119752 51.119751-46.804073-46.804072z m-37.991176-105.22252a24.775957 24.775957 0 0 1 35.004034 0.004126l30.754368 30.754368-51.119751 51.123878-48.268763-48.264637c19.907409-19.890906 33.630113-33.617735 33.630112-33.617735zM173.204775 664.577399l48.268763 48.264637-56.083194 56.08732-48.268763-48.268763 56.083194-56.083194z m-124.742095 124.742095s19.300904-19.313281 45.306375-45.314627l48.268763 48.264637L79.217048 855.102652l-30.76262-30.758495a24.81309 24.81309 0 0 1 0.008252-35.024663z m186.221951 186.226078a24.549033 24.549033 0 0 1-17.502016 7.207926c-6.64268 0-12.860393-2.558051-17.506143-7.207926l-26.975055-26.966803 62.833147-62.829022 44.472946 44.460569-45.322879 45.335256z m68.658902-68.663027l-44.460569-44.46882 56.083195-56.087321 44.477072 44.460569c-17.799081 17.799081-37.595091 37.599217-56.099698 56.095572z m113.041077-113.036952l-33.613609 33.609484-44.464694-44.468821 51.119751-51.136255c15.987816 16.000193 26.970929 26.975055 26.97093 26.975056a24.569663 24.569663 0 0 1 7.2038 17.502016 24.635677 24.635677 0 0 1-7.216178 17.51852z" fill="#6E6E96" p-id="2069"></path><path d="M311.702582 369.654803l402.620647 402.620648-34.282002 10.632414-48.582331-39.860204h-35.070047l-93.562761-93.554509h-35.416622l-236.339112-236.343238z" fill="#6E6E96" opacity=".15" p-id="2070"></path><path d="M428.985072 748.295791l-1.213011-1.213011c-0.375456 0.412589-0.717905 0.841681-1.118116 1.237766l-181.695853 181.691727c-16.057956 16.066208-42.302729 16.066208-58.36481 0L36.604878 780.023869c-14.8697 16.136348-14.527251 41.461048 1.118115 57.118792l151.213793 151.19729c16.049704 16.070333 42.306855 16.070333 58.352433 0l181.695853-181.691727c16.05383-16.049704 16.05383-42.302729 0-58.352433zM1013.920456 186.428246l-1.213011-1.213011c-0.391959 0.412589-0.730282 0.837555-1.118116 1.237767l-181.695853 181.691726c-16.045578 16.057956-42.302729 16.057956-58.352433 0l-150.004907-149.992529c-14.8697 16.140474-14.527251 41.461048 1.118115 57.127044l151.201415 151.197289c16.062082 16.057956 42.306855 16.057956 58.364811 0l181.695853-181.691727c16.05383-16.05383 16.05383-42.310981 0.004126-58.356559z" fill="#6E6E96" opacity=".25" p-id="2071"></path></svg>