<?xml version="1.0" standalone="no"?><!DOCTYPE svg PUBLIC "-//W3C//DTD SVG 1.1//EN" "http://www.w3.org/Graphics/SVG/1.1/DTD/svg11.dtd"><svg t="1650727068125" class="icon" viewBox="0 0 1024 1024" version="1.1" xmlns="http://www.w3.org/2000/svg" p-id="11940" xmlns:xlink="http://www.w3.org/1999/xlink" width="200" height="200"><defs><style type="text/css">@font-face { font-family: feedback-iconfont; src: url("//at.alicdn.com/t/font_1031158_u69w8yhxdu.woff2?t=1630033759944") format("woff2"), url("//at.alicdn.com/t/font_1031158_u69w8yhxdu.woff?t=1630033759944") format("woff"), url("//at.alicdn.com/t/font_1031158_u69w8yhxdu.ttf?t=1630033759944") format("truetype"); }
</style></defs><path d="M474.3 808.3C339.4 791.2 232.2 684 215.2 549.1H65.8C69.7 596.2 81 642 99.5 685.7c22.6 53.3 54.8 101.2 95.9 142.3 41.1 41.1 89 73.4 142.3 95.9 43.6 18.5 89.4 29.7 136.5 33.6V808.3zM215.1 474.5c18.3-147.7 144.5-262.3 297-262.3s278.7 114.7 297 262.3h149.3c-3.9-47.4-15.1-93.5-33.7-137.4-22.6-53.3-54.8-101.2-95.9-142.3-41.1-41.1-89-73.4-142.3-95.9-55.3-23.4-113.9-35.2-174.3-35.2S393 75.5 337.7 98.9c-53.3 22.6-101.2 54.8-142.3 95.9-41.1 41.1-73.4 89-95.9 142.3-18.6 43.9-29.9 90-33.7 137.4h149.3zM809 549.2c-17.1 135.2-124.7 242.5-260 259.3v149.3c47.4-3.9 93.5-15.1 137.4-33.7 53.3-22.6 101.2-54.8 142.3-95.9 41.1-41.1 73.4-89 95.9-142.3 18.5-43.7 29.7-89.5 33.7-136.6H809zM487.5 958.6c8.1 0.4 16.3 0.7 24.6 0.7s16.4-0.2 24.6-0.7h-49.2z" fill="#CF0021" p-id="11941"></path></svg>