<?xml version="1.0" standalone="no"?><!DOCTYPE svg PUBLIC "-//W3C//DTD SVG 1.1//EN" "http://www.w3.org/Graphics/SVG/1.1/DTD/svg11.dtd"><svg t="1651161105201" class="icon" viewBox="0 0 1172 1024" version="1.1" xmlns="http://www.w3.org/2000/svg" p-id="2223" xmlns:xlink="http://www.w3.org/1999/xlink" width="228.90625" height="200"><defs><style type="text/css">@font-face { font-family: feedback-iconfont; src: url("//at.alicdn.com/t/font_1031158_u69w8yhxdu.woff2?t=1630033759944") format("woff2"), url("//at.alicdn.com/t/font_1031158_u69w8yhxdu.woff?t=1630033759944") format("woff"), url("//at.alicdn.com/t/font_1031158_u69w8yhxdu.ttf?t=1630033759944") format("truetype"); }
</style></defs><path d="M30.559187 443.136847h460.000709v38.175125H30.559187z" fill="#6E6E96" p-id="2224"></path><path d="M709.742374 318.738431h135.302185v70.351983h-135.302185z" fill="#A5C2BA" p-id="2225"></path><path d="M845.035016 370.002852h-135.302186a19.087562 19.087562 0 0 1 19.087562 19.087562V318.738431a19.087562 19.087562 0 0 1-19.087562 19.087563h135.302186a19.087562 19.087562 0 0 1-19.087563-19.087563v70.351983a19.087562 19.087562 0 0 1 19.087563-19.087562z m0-70.351983h-135.302186a19.087562 19.087562 0 0 0-19.087562 19.087562v70.351983a19.087562 19.087562 0 0 0 19.087562 19.087563h135.302186a19.087562 19.087562 0 0 0 19.087562-19.087563V318.738431a19.087562 19.087562 0 0 0-19.087562-19.087562z" fill="#6E6E96" p-id="2226"></path><path d="M1115.625071 727.407913l-870.063582 1.226376-44.531283-30.998202 71.7072-71.702427H1080.451466l71.711971 71.702427z" fill="#A5C2BA" p-id="2227"></path><path d="M1115.59644 708.32035l-870.063582 1.245464a18.996896 18.996896 0 0 1 10.937173 3.421445l-44.531283-31.002973a19.063703 19.063703 0 0 1 8.097899 13.991183 19.092334 19.092334 0 0 1-5.506762 15.184156l71.692884-71.702428a19.097106 19.097106 0 0 1-13.499678 5.592656H1080.451466a19.078019 19.078019 0 0 1-13.494907-5.592656l71.702428 71.702428a18.992125 18.992125 0 0 1-5.568796-14.4636 19.039843 19.039843 0 0 1 7.009907-13.819395l-36.528823 29.75751a18.872827 18.872827 0 0 1 12.025165-4.31379z m50.057132-24.179169l-71.692884-71.697656a19.116194 19.116194 0 0 0-13.494907-5.597428H272.737406a19.087562 19.087562 0 0 0-13.490134 5.597428L187.5353 684.141181a19.10665 19.10665 0 0 0 2.591136 29.165795l44.531283 31.007745a19.135281 19.135281 0 0 0 10.937174 3.426218l870.063581-1.245464a19.087562 19.087562 0 0 0 12.029936-4.285158l36.528823-29.762281a19.08279 19.08279 0 0 0 1.436339-28.306855z" fill="#6E6E96" p-id="2228"></path><path d="M944.333287 895.178042H443.924209c-162.344489 0-207.496118-65.689846-207.496118-122.179487 0-83.479454 82.61097-85.397754 82.61097-85.397753h706.645416s94.053963 1.302726 94.053964 85.397753c-0.009544 116.753847-141.090489 122.179486-175.405154 122.179487z" fill="#A5C2BA" p-id="2229"></path><path d="M944.333287 876.09048H443.924209c-119.745822 0-188.408556-37.569095-188.408556-103.091925 0-63.008043 57.420159-66.157491 63.962421-66.310191h706.19686c7.372571 0.157472 74.966401 3.40713 74.966401 66.310191 0 93.042323-109.314469 103.091924-156.308048 103.091925z m194.483172-103.091925c0-81.403681-73.835463-103.931777-112.864756-104.485316H319.029517c-35.464691 0.815993-101.698532 23.697209-101.698532 104.485316 0 33.14078 16.338953 141.267049 226.58368 141.267049h500.409078c45.628818 0 194.492716-10.192758 194.492716-141.267049z" fill="#6E6E96" p-id="2230"></path><path d="M1080.451466 625.93366H436.446656v-44.650581l32.467944-29.767053H1056.592013z" fill="#A5C2BA" p-id="2231"></path><path d="M1080.451466 606.846097H436.446656a19.087562 19.087562 0 0 1 19.087563 19.087563v-44.645809c0 5.349289-2.24756 10.45044-6.189142 14.072306l32.467943-29.767054a19.058931 19.058931 0 0 1-12.89842 5.024801H1056.592013a19.087562 19.087562 0 0 1-19.087563-19.087562l23.859453 74.417633a19.087562 19.087562 0 0 1 19.087563-19.101878z m-23.859453-74.417633H468.9146a19.073247 19.073247 0 0 0-12.89842 5.020028l-32.467944 29.762282a19.111422 19.111422 0 0 0-6.189142 14.072305v44.636265a19.087562 19.087562 0 0 0 19.087562 19.087562H1080.451466a19.087562 19.087562 0 0 0 19.087562-19.087562l-23.859453-74.417634a19.087562 19.087562 0 0 0-19.087562-19.073246z" fill="#6E6E96" p-id="2232"></path><path d="M955.9767 475.757491V378.344117h-340.942039l-56.823673 51.407577v67.651093l56.823673 54.113239h273.290946V475.757491z" fill="#A5C2BA" p-id="2233"></path><path d="M975.064262 475.757491V378.344117a19.087562 19.087562 0 0 0-19.087562-19.087563h-340.942039c-4.733715 0-9.295643 1.760828-12.807754 4.934135l-56.823673 51.407577a19.087562 19.087562 0 0 0-6.279808 14.153428v67.651093c0 5.22522 2.142579 10.22139 5.926688 13.819395l56.823673 54.118011a19.101878 19.101878 0 0 0 13.165646 5.268167h273.290946a19.087562 19.087562 0 0 0 19.087562-19.087562V475.757491a19.087562 19.087562 0 0 1-19.087562 19.087562h67.651093a19.087562 19.087562 0 0 0 19.08279-19.087562z m-105.826217 0v75.758535a19.087562 19.087562 0 0 1 19.087562-19.087562h-273.290946c4.900732 0 9.61536 1.889669 13.165647 5.268167l-56.828445-54.113239a19.068475 19.068475 0 0 1 5.926688 13.819395V429.751694c0 5.392236-2.280964 10.536334-6.270265 14.153427l56.81413-51.407577a19.049387 19.049387 0 0 1-12.807755 4.934135h340.942039a19.087562 19.087562 0 0 1-19.087563-19.087562V475.757491a19.087562 19.087562 0 0 1 19.087563-19.087562h-67.651093a19.087562 19.087562 0 0 0-19.087562 19.087562z" fill="#6E6E96" p-id="2234"></path><path d="M888.325607 456.669929h-67.651093a19.087562 19.087562 0 0 0 0 38.175124h67.651093a19.087562 19.087562 0 0 0 0-38.175124z" fill="#6E6E96" p-id="2235"></path><path d="M490.559896 429.751694h67.651092v67.651093h-67.651092z" fill="#A5C2BA" p-id="2236"></path><path d="M490.559896 516.490349h67.651092a19.087562 19.087562 0 0 0 19.087563-19.087562V429.751694a19.087562 19.087562 0 0 0-19.087563-19.087562h-67.651092a19.087562 19.087562 0 0 0-19.087563 19.087562v67.651093a19.087562 19.087562 0 0 0 19.087563 19.087562z m0-67.651093h67.651092a19.087562 19.087562 0 0 1-19.087562-19.087562v67.651093a19.087562 19.087562 0 0 1 19.087562-19.087563h-67.651092a19.087562 19.087562 0 0 1 19.087562 19.087563V429.751694a19.087562 19.087562 0 0 1-19.087562 19.087562z" fill="#6E6E96" p-id="2237"></path><path d="M403.973941 438.512885h86.585955v51.483928H403.973941z" fill="#A5C2BA" p-id="2238"></path><path d="M403.973941 509.084375h86.585955a19.087562 19.087562 0 0 0 19.087562-19.087562V438.512885a19.087562 19.087562 0 0 0-19.087562-19.087562H403.973941a19.087562 19.087562 0 0 0-19.087562 19.087562v51.483928a19.087562 19.087562 0 0 0 19.087562 19.087562z m0-51.483928h86.585955a19.087562 19.087562 0 0 1-19.087563-19.087562v51.483928a19.087562 19.087562 0 0 1 19.087563-19.087563H403.973941a19.087562 19.087562 0 0 1 19.087562 19.087563V438.512885a19.087562 19.087562 0 0 1-19.087562 19.087562z" fill="#6E6E96" p-id="2239"></path><path d="M311.332457 769.348059m-71.702428 0a71.702428 71.702428 0 1 0 143.404856 0 71.702428 71.702428 0 1 0-143.404856 0Z" fill="#C4ADAD" p-id="2240"></path><path d="M363.947323 769.348059c0 29.013095-23.592227 52.614866-52.605322 52.614866s-52.614866-23.601771-52.614866-52.614866S282.324134 716.737965 311.337229 716.737965c29.008323-0.014316 52.610094 23.596999 52.610094 52.610094z m-52.614866-90.799534c-50.061904 0-90.78999 40.728086-90.78999 90.794762 0 50.05236 40.728086 90.780446 90.78999 90.780447 50.05236 0 90.780446-40.728086 90.780447-90.780447 0.009544-50.066676-40.718542-90.794762-90.780447-90.794762z" fill="#6E6E96" p-id="2241"></path><path d="M477.313127 796.967762m-45.566783 0a45.566783 45.566783 0 1 0 91.133567 0 45.566783 45.566783 0 1 0-91.133567 0Z" fill="#C4ADAD" p-id="2242"></path><path d="M503.792348 796.972534a26.50308 26.50308 0 0 1-26.488764 26.469677 26.498308 26.498308 0 0 1-26.479221-26.469677 26.512624 26.512624 0 0 1 26.479221-26.493537 26.517396 26.517396 0 0 1 26.488764 26.493537z m-26.479221-64.668661c-35.650795 0-64.654345 29.008323-64.654345 64.668661 0 35.650795 29.003551 64.644802 64.654345 64.644801 35.660338 0 64.663889-28.994007 64.66389-64.644801-0.009544-35.660338-29.013095-64.668661-64.66389-64.668661z" fill="#6E6E96" p-id="2243"></path><path d="M1047.258195 769.348059m-71.702428 0a71.702428 71.702428 0 1 0 143.404856 0 71.702428 71.702428 0 1 0-143.404856 0Z" fill="#C4ADAD" p-id="2244"></path><path d="M1099.87306 769.348059c0 29.013095-23.601771 52.614866-52.614865 52.614866s-52.614866-23.601771-52.614866-52.614866 23.601771-52.605322 52.614866-52.605322 52.614866 23.592227 52.614865 52.605322z m-52.614865-90.799534c-50.061904 0-90.78999 40.728086-90.789991 90.794762 0 50.05236 40.728086 90.780446 90.789991 90.780447s90.78999-40.728086 90.78999-90.780447c0-50.066676-40.728086-90.794762-90.78999-90.794762z" fill="#6E6E96" p-id="2245"></path><path d="M885.906258 796.967762m-45.571555 0a45.571555 45.571555 0 1 0 91.143111 0 45.571555 45.571555 0 1 0-91.143111 0Z" fill="#C4ADAD" p-id="2246"></path><path d="M912.385479 796.972534a26.50308 26.50308 0 0 1-26.493536 26.469677 26.498308 26.498308 0 0 1-26.483993-26.469677 26.512624 26.512624 0 0 1 26.483993-26.493537 26.517396 26.517396 0 0 1 26.493536 26.493537z m-26.479221-64.668661c-35.655566 0-64.659117 29.008323-64.659117 64.668661 0 35.650795 29.003551 64.644802 64.659117 64.644801 35.66511 0 64.668661-28.994007 64.668662-64.644801-0.014316-35.660338-29.017867-64.668661-64.668662-64.668661z" fill="#6E6E96" p-id="2247"></path><path d="M747.640729 796.967762m-45.562011 0a45.562011 45.562011 0 1 0 91.124022 0 45.562011 45.562011 0 1 0-91.124022 0Z" fill="#C4ADAD" p-id="2248"></path><path d="M774.115178 796.972534a26.498308 26.498308 0 0 1-26.483993 26.469677 26.493537 26.493537 0 0 1-26.469677-26.469677 26.507852 26.507852 0 0 1 26.469677-26.493537c14.606757 0 26.483993 11.882008 26.483993 26.493537z m-26.483993-64.668661c-35.646023 0-64.644802 29.008323-64.644802 64.668661 0 35.650795 28.998779 64.644802 64.644802 64.644801 35.655566 0 64.659117-28.994007 64.659117-64.644801 0-35.660338-29.003551-64.668661-64.659117-64.668661z" fill="#6E6E96" p-id="2249"></path><path d="M612.534191 796.967762m-45.566783 0a45.566783 45.566783 0 1 0 91.133566 0 45.566783 45.566783 0 1 0-91.133566 0Z" fill="#C4ADAD" p-id="2250"></path><path d="M639.013412 796.972534a26.50308 26.50308 0 0 1-26.493537 26.469677 26.493537 26.493537 0 0 1-26.474449-26.469677 26.512624 26.512624 0 0 1 26.474449-26.493537 26.517396 26.517396 0 0 1 26.493537 26.493537z m-26.479221-64.668661c-35.650795 0-64.649574 29.008323-64.649574 64.668661 0 35.650795 29.003551 64.644802 64.649574 64.644801 35.66511 0 64.668661-28.994007 64.668661-64.644801-0.014316-35.660338-29.017867-64.668661-64.668661-64.668661z" fill="#6E6E96" p-id="2251"></path><path d="M310.654849 767.959439m-24.350958 0a24.350958 24.350958 0 1 0 48.701915 0 24.350958 24.350958 0 1 0-48.701915 0Z" fill="#6E6E96" p-id="2252"></path><path d="M1046.661708 767.959439m-24.355729 0a24.35573 24.35573 0 1 0 48.711459 0 24.35573 24.35573 0 1 0-48.711459 0Z" fill="#6E6E96" p-id="2253"></path><path d="M728.829936 337.825994h43.228557v21.43056h-43.228557z" fill="#B8D9D0" p-id="2254"></path><path d="M577.298551 438.2218l50.901757 50.901757h142.00192V430.87786h185.774472V475.757491h-67.651093v75.758535h-273.290946l-55.468456-55.468456zM449.345077 590.588266H1061.363903v16.257831H449.345077zM504.875567 462.372338h48.563531v20.714777h-48.563531zM316.6388 740.101142H1023.284216s74.746894 1.092763 90.947463 60.95613a123.639685 123.639685 0 0 0 3.106501-28.058717c0-84.080712-94.053963-85.397754-94.053964-85.397753H316.6388s-82.61097 1.903984-82.61097 85.397753c0 8.47965 1.045044 17.169262 3.311692 25.806385 15.389347-57.200652 79.299278-58.703798 79.299278-58.703798z" fill="#6E6E96" opacity=".2" p-id="2255"></path><path d="M590.974789 451.898038l42.068988-42.068987h303.84536v-12.397372h-321.854476l-37.73611 40.790121z" fill="#B8D9D0" p-id="2256"></path></svg>